<mxfile host="app.diagrams.net" agent="Mozilla/5.0 (Windows NT 10.0; Win64; x64) AppleWebKit/537.36 (KHTML, like Gecko) Chrome/134.0.0.0 Safari/537.36" version="26.1.0">
  <diagram name="PÃ¡gina-1" id="fh3l5JAtcwN4DxrLxvHm">
    <mxGraphModel dx="1301" dy="794" grid="1" gridSize="10" guides="1" tooltips="1" connect="1" arrows="1" fold="1" page="1" pageScale="1" pageWidth="827" pageHeight="1169" math="0" shadow="0">
      <root>
        <mxCell id="0" />
        <mxCell id="1" parent="0" />
        <mxCell id="9jzzl83fZ5NG2uD0tE47-45" style="edgeStyle=orthogonalEdgeStyle;rounded=0;orthogonalLoop=1;jettySize=auto;html=1;exitX=0.5;exitY=1;exitDx=0;exitDy=0;entryX=0.5;entryY=0;entryDx=0;entryDy=0;" edge="1" parent="1" source="9jzzl83fZ5NG2uD0tE47-1">
          <mxGeometry relative="1" as="geometry">
            <mxPoint x="-430" y="200" as="targetPoint" />
          </mxGeometry>
        </mxCell>
        <mxCell id="9jzzl83fZ5NG2uD0tE47-1" value="" style="ellipse;whiteSpace=wrap;html=1;" vertex="1" parent="1">
          <mxGeometry x="-492.5" y="40" width="120" height="80" as="geometry" />
        </mxCell>
        <mxCell id="9jzzl83fZ5NG2uD0tE47-24" value="INICIO&lt;div&gt;&lt;br&gt;&lt;/div&gt;" style="text;html=1;align=center;verticalAlign=middle;whiteSpace=wrap;rounded=0;" vertex="1" parent="1">
          <mxGeometry x="-462.5" y="75" width="60" height="30" as="geometry" />
        </mxCell>
        <mxCell id="9jzzl83fZ5NG2uD0tE47-56" value="Pedir primer numero&amp;nbsp;" style="rounded=0;whiteSpace=wrap;html=1;" vertex="1" parent="1">
          <mxGeometry x="-490" y="210" width="120" height="60" as="geometry" />
        </mxCell>
        <mxCell id="9jzzl83fZ5NG2uD0tE47-64" style="edgeStyle=orthogonalEdgeStyle;rounded=0;orthogonalLoop=1;jettySize=auto;html=1;exitX=0.5;exitY=1;exitDx=0;exitDy=0;" edge="1" parent="1" source="9jzzl83fZ5NG2uD0tE47-57" target="9jzzl83fZ5NG2uD0tE47-60">
          <mxGeometry relative="1" as="geometry" />
        </mxCell>
        <mxCell id="9jzzl83fZ5NG2uD0tE47-57" value="Pedir segundo numero" style="rounded=0;whiteSpace=wrap;html=1;" vertex="1" parent="1">
          <mxGeometry x="-490" y="400" width="140" height="60" as="geometry" />
        </mxCell>
        <mxCell id="9jzzl83fZ5NG2uD0tE47-65" style="edgeStyle=orthogonalEdgeStyle;rounded=0;orthogonalLoop=1;jettySize=auto;html=1;exitX=0.5;exitY=1;exitDx=0;exitDy=0;" edge="1" parent="1" source="9jzzl83fZ5NG2uD0tE47-60">
          <mxGeometry relative="1" as="geometry">
            <mxPoint x="-430" y="790" as="targetPoint" />
          </mxGeometry>
        </mxCell>
        <mxCell id="9jzzl83fZ5NG2uD0tE47-60" value="Calcula suma&amp;nbsp;" style="rounded=0;whiteSpace=wrap;html=1;" vertex="1" parent="1">
          <mxGeometry x="-490" y="580" width="120" height="60" as="geometry" />
        </mxCell>
        <mxCell id="9jzzl83fZ5NG2uD0tE47-66" style="edgeStyle=orthogonalEdgeStyle;rounded=0;orthogonalLoop=1;jettySize=auto;html=1;exitX=0.5;exitY=1;exitDx=0;exitDy=0;entryX=0.5;entryY=0;entryDx=0;entryDy=0;" edge="1" parent="1" source="9jzzl83fZ5NG2uD0tE47-61" target="9jzzl83fZ5NG2uD0tE47-62">
          <mxGeometry relative="1" as="geometry" />
        </mxCell>
        <mxCell id="9jzzl83fZ5NG2uD0tE47-61" value="Mostrar Resultado" style="rounded=0;whiteSpace=wrap;html=1;" vertex="1" parent="1">
          <mxGeometry x="-480" y="800" width="120" height="60" as="geometry" />
        </mxCell>
        <mxCell id="9jzzl83fZ5NG2uD0tE47-62" value="FIN" style="ellipse;whiteSpace=wrap;html=1;" vertex="1" parent="1">
          <mxGeometry x="-480" y="1010" width="120" height="80" as="geometry" />
        </mxCell>
        <mxCell id="9jzzl83fZ5NG2uD0tE47-63" style="edgeStyle=orthogonalEdgeStyle;rounded=0;orthogonalLoop=1;jettySize=auto;html=1;exitX=0.5;exitY=1;exitDx=0;exitDy=0;entryX=0.594;entryY=-0.022;entryDx=0;entryDy=0;entryPerimeter=0;" edge="1" parent="1" source="9jzzl83fZ5NG2uD0tE47-56" target="9jzzl83fZ5NG2uD0tE47-57">
          <mxGeometry relative="1" as="geometry" />
        </mxCell>
      </root>
    </mxGraphModel>
  </diagram>
</mxfile>
